HIERARCHY
ROOT Hips
{
	OFFSET -3.958830 18.904000 13.208200
	CHANNELS 6 Xposition Yposition Zposition Zrotation Yrotation Xrotation 
	JOINT LHipJoint
	{
		OFFSET 0.000000 0.000000 0.000000
		CHANNELS 3 Zrotation Yrotation Xrotation
		JOINT LeftUpLeg
		{
			OFFSET 1.800000 -1.400000 0.085000
			CHANNELS 3 Zrotation Yrotation Xrotation
			JOINT LeftLeg
			{
				OFFSET 2.215000 -6.000000 0.000000
				CHANNELS 3 Zrotation Yrotation Xrotation
				JOINT LeftFoot
				{
					OFFSET 2.500000 -6.900000 0.000000
					CHANNELS 3 Zrotation Yrotation Xrotation
					JOINT LeftToeBase
					{
						OFFSET 0.200000 -0.500000 1.950000
						CHANNELS 3 Zrotation Yrotation Xrotation
						End Site
						{
							OFFSET 0.000000 0.000000 0.000000
						}
					}
				}
			}
		}
	}
	JOINT RHipJoint
	{
		OFFSET 0.000000 0.000000 0.000000
		CHANNELS 3 Zrotation Yrotation Xrotation
		JOINT RightUpLeg
		{
			OFFSET -1.800000 -1.400000 0.085000
			CHANNELS 3 Zrotation Yrotation Xrotation
			JOINT RightLeg
			{
				OFFSET -2.215000 -6.000000 0.000000
				CHANNELS 3 Zrotation Yrotation Xrotation
				JOINT RightFoot
				{
					OFFSET -2.500000 -6.900000 0.000000
					CHANNELS 3 Zrotation Yrotation Xrotation
					JOINT RightToeBase
					{
						OFFSET -0.200000 -0.500000 1.950000
						CHANNELS 3 Zrotation Yrotation Xrotation
						End Site
						{
							OFFSET 0.000000 0.000000 0.000000
						}
					}
				}
			}
		}
	}
	JOINT LowerBack
	{
		OFFSET 0.000000 0.000000 0.000000
		CHANNELS 3 Zrotation Yrotation Xrotation
		JOINT Spine
		{
			OFFSET -0.087000 1.940000 -0.288900
			CHANNELS 3 Zrotation Yrotation Xrotation
			JOINT Spine1
			{
				OFFSET 0.000000 1.950000 0.060000
				CHANNELS 3 Zrotation Yrotation Xrotation
				JOINT Neck
				{
					OFFSET 0.000000 0.000000 0.000000
					CHANNELS 3 Zrotation Yrotation Xrotation
					JOINT Neck1
					{
						OFFSET 0.000000 1.600000 0.340000
						CHANNELS 3 Zrotation Yrotation Xrotation
						JOINT Head
						{
							OFFSET 0.000000 1.667000 -0.240000
							CHANNELS 3 Zrotation Yrotation Xrotation
							End Site
							{
								OFFSET 0.000000 0.000000 0.000000
							}
						}
					}
				}
				JOINT LeftShoulder
				{
					OFFSET 0.000000 0.000000 0.000000
					CHANNELS 3 Zrotation Yrotation Xrotation
					JOINT LeftArm
					{
						OFFSET 2.700000 1.550000 -0.730000
						CHANNELS 3 Zrotation Yrotation Xrotation
						JOINT LeftForeArm
						{
							OFFSET 5.450000 0.000000 0.000000
							CHANNELS 3 Zrotation Yrotation Xrotation
							JOINT LeftHand
							{
								OFFSET 3.450000 0.000000 0.000000
								CHANNELS 3 Zrotation Yrotation Xrotation
								JOINT LeftHandIndex1
								{
									OFFSET 0.750000 0.000000 0.000000
									CHANNELS 3 Zrotation Yrotation Xrotation
									End Site
									{
										OFFSET 0.000000 0.000000 0.000000
									}
								}
							}
						}
					}
				}
				JOINT RightShoulder
				{
					OFFSET 0.000000 0.000000 0.000000
					CHANNELS 3 Zrotation Yrotation Xrotation
					JOINT RightArm
					{
						OFFSET -2.700000 1.550000 -0.730000
						CHANNELS 3 Zrotation Yrotation Xrotation
						JOINT RightForeArm
						{
							OFFSET -5.450000 0.000000 0.000000
							CHANNELS 3 Zrotation Yrotation Xrotation
							JOINT RightHand
							{
								OFFSET -3.450000 0.000000 0.000000
								CHANNELS 3 Zrotation Yrotation Xrotation
								JOINT RightHandIndex1
								{
									OFFSET -0.750000 0.000000 0.000000
									CHANNELS 3 Zrotation Yrotation Xrotation
									End Site
									{
										OFFSET 0.000000 0.000000 0.000000
									}
								}
							}
						}
					}
				}
			}
		}
	}
}
MOTION
Frames: 10
Frame Time: 0.016667
1.324810 17.084550 -2.874160 -11.428388 81.613956 -11.379508 -15.890368 12.645093 2.711273 2.343040 -2.270541 -17.340626 -9.584709 7.022952 16.797211 -0.398685 4.258125 3.240855 0.518500 0.262430 0.422100 17.695837 -10.091301 3.727754 -6.761279 9.632788 -29.808536 8.154559 -15.581233 61.785535 -1.501426 -10.487086 0.979039 0.260060 0.332400 0.171820 -5.041862 -0.812008 -7.665965 11.946684 0.099199 9.991487 -4.539134 0.794205 8.777710 2.103797 -2.294823 -7.821837 -4.972478 3.658132 31.935730 -5.621780 4.719850 -0.972430 -8.107842 0.018600 1.916479 -39.441051 -13.253423 2.140173 -36.760408 -70.708044 23.480995 -3.754028 3.678050 0.140690 0.357700 -0.226880 0.259040 3.840869 2.295215 3.848573 44.111920 13.339955 -1.302795 35.127735 73.644444 20.928019 1.853565 -2.291013 -0.164940 0.129870 -0.206380 -0.167570 
1.275710 17.084750 -2.864550 -12.454287 81.399427 -12.361227 -15.919615 12.590265 2.679779 2.670617 -2.339249 -18.028307 -9.493948 7.100446 17.259804 -0.435184 4.324716 3.219391 0.528290 0.281890 0.412420 17.686461 -10.039520 3.751250 -6.788584 9.876667 -30.117250 8.092899 -15.907422 62.886514 -1.542157 -10.742614 0.907561 0.297210 0.374540 0.179840 -5.126069 -0.707715 -7.663579 12.381064 0.224756 9.688144 -4.478362 0.858936 9.184770 1.974134 -2.213894 -7.519593 -4.719520 3.610628 31.353078 -5.777910 4.705740 -0.682420 -7.217834 -0.191337 1.728630 -38.044610 -15.778027 3.203434 -27.281609 -74.645962 18.344518 -3.779651 3.669859 0.105650 0.403790 -0.261540 0.268600 3.205936 2.420957 3.470056 42.382819 15.538443 -0.968213 25.107958 76.571978 15.346959 1.735124 -2.315054 -0.177640 0.145730 -0.197330 -0.164130 
1.228150 17.081810 -2.850380 -12.795117 81.076267 -12.582585 -15.930096 12.533522 2.671637 3.023375 -2.409908 -18.739386 -9.595533 7.214714 17.633299 -0.450805 4.397528 3.195943 0.540350 0.307580 0.400850 17.689987 -10.038856 3.731170 -6.597815 9.973982 -30.149491 7.668317 -15.683115 63.209463 -1.533770 -10.794072 0.890200 0.332560 0.416240 0.197130 -5.175070 -0.602664 -7.638586 12.582747 0.434294 9.244107 -4.336084 0.970194 9.546861 1.826807 -2.096167 -7.218992 -4.399053 3.606127 30.744366 -5.883890 4.775940 -0.237460 -6.277540 -0.504515 1.556898 -36.507499 -18.032416 3.811547 -11.805337 -77.691633 7.710627 -3.784864 3.623766 0.061080 0.450430 -0.289730 0.284970 2.573123 2.651872 3.063425 40.678978 17.531372 -0.962588 11.481072 78.555578 6.223801 1.613448 -2.276663 -0.178880 0.151700 -0.195570 -0.151490 
1.181990 17.078050 -2.831340 -12.544349 80.591790 -12.151006 -15.922746 12.476411 2.684857 3.425289 -2.482005 -19.509613 -9.817852 7.374280 18.016268 -0.461400 4.485956 3.168598 0.545800 0.324630 0.384970 17.704646 -10.091142 3.671673 -6.161132 9.943636 -29.861054 6.927889 -14.929999 62.724981 -1.469706 -10.643209 0.933754 0.362850 0.460340 0.210950 -5.202587 -0.484476 -7.594423 12.634891 0.703111 8.706685 -4.210578 1.121701 9.824767 1.703353 -1.953895 -6.946599 -4.026240 3.672692 30.159750 -5.983590 4.946170 0.419510 -5.443243 -1.068300 1.390162 -34.680103 -19.755304 3.747347 9.701698 -79.056299 -8.352455 -3.766114 3.455483 0.016090 0.498590 -0.322560 0.301590 2.012704 3.144701 2.681789 39.068850 19.346444 -1.254365 -5.666042 79.397214 -6.055345 1.476705 -2.110448 -0.184190 0.155490 -0.193800 -0.139520 
1.134770 17.075120 -2.809130 -11.603274 79.988858 -11.006284 -15.895755 12.420816 2.720589 3.820501 -2.569350 -20.372038 -10.132892 7.604929 18.572326 -0.466455 4.605147 3.129163 0.553660 0.342850 0.369310 17.733419 -10.184296 3.576733 -5.632688 9.767363 -29.284149 5.994225 -13.824887 61.539730 -1.367355 -10.333349 1.025536 0.393380 0.503230 0.223450 -5.197146 -0.382670 -7.530783 12.469807 0.992980 8.154742 -4.026826 1.275590 10.016070 1.542131 -1.871118 -6.665687 -3.766462 3.896990 29.654906 -5.952860 5.148720 1.038260 -4.657022 -1.774016 1.208626 -32.715609 -21.114247 3.302927 31.859340 -78.392806 -24.222410 -3.711240 3.093744 -0.024520 0.543540 -0.353930 0.320170 1.586060 3.849346 2.258184 37.415282 21.189844 -1.450141 -22.811357 78.775109 -17.829439 1.320846 -1.802013 -0.190270 0.159890 -0.194080 -0.127930 
1.084810 17.074220 -2.785440 -10.377157 79.299792 -9.614204 -15.859034 12.370065 2.777920 4.255443 -2.661270 -21.299067 -10.548327 7.923351 19.315265 -0.465772 4.756579 3.069897 0.568440 0.368800 0.367030 17.766516 -10.302922 3.456835 -5.071971 9.471643 -28.423617 4.994297 -12.570595 59.862377 -1.248181 -9.921456 1.145531 0.425090 0.529040 0.231300 -5.170798 -0.278994 -7.460911 12.153331 1.284293 7.714675 -3.817701 1.439792 10.188741 1.416408 -1.791179 -6.412634 -3.513605 4.141517 29.270367 -6.001940 5.420350 1.353060 -3.962899 -2.487127 1.050015 -30.570908 -22.273069 3.067788 49.247064 -75.864718 -34.515639 -3.624096 2.595506 -0.056520 0.576250 -0.375590 0.331910 1.193284 4.615512 1.837568 35.841892 23.220251 -1.179382 -37.415336 76.512915 -26.345381 1.155222 -1.409338 -0.193350 0.162360 -0.198270 -0.122330 
1.029300 17.073510 -2.759970 -8.855858 78.652713 -7.992479 -15.814837 12.332335 2.860521 4.672041 -2.770535 -22.289855 -11.008349 8.316892 20.265728 -0.465431 4.949670 2.991893 0.588140 0.395490 0.376530 17.801385 -10.432050 3.319870 -4.580184 9.054451 -27.317087 4.024909 -11.332599 57.877129 -1.128115 -9.461907 1.277214 0.457640 0.543920 0.236750 -5.095536 -0.212094 -7.395259 11.528215 1.609737 7.420882 -3.381825 1.650586 10.512466 1.264281 -1.712393 -6.293639 -3.294295 4.312793 29.004161 -6.053200 5.581450 1.324910 -3.170404 -3.132996 1.074029 -28.346807 -23.559146 3.591606 61.133580 -71.508774 -39.311822 -3.573352 2.231865 -0.072350 0.596600 -0.386630 0.339260 0.775367 5.389609 1.494819 34.066714 25.346176 -0.247081 -49.409392 72.809328 -31.759364 1.009877 -1.055815 -0.199760 0.170180 -0.203180 -0.122890 
0.968810 17.072320 -2.734390 -7.333050 78.033552 -6.333454 -15.771021 12.284860 2.971186 5.126365 -2.915384 -23.498205 -11.572960 8.844033 21.531637 -0.458362 5.205608 2.885542 0.609280 0.431590 0.386400 17.836235 -10.553310 3.175767 -4.166840 8.560069 -26.151377 3.174182 -10.200818 55.657579 -1.007414 -8.982590 1.418594 0.496740 0.553830 0.232440 -5.005801 -0.149390 -7.344386 10.802627 1.940827 7.187955 -2.928345 1.886489 10.960597 1.114657 -1.622502 -6.260709 -3.060009 4.440650 28.692469 -6.065100 5.655660 1.035980 -2.413751 -3.637513 1.165675 -25.967883 -24.916580 4.487477 68.639811 -66.159417 -40.835487 -3.622911 2.172244 -0.086000 0.611420 -0.394640 0.343170 0.396000 6.034638 1.293727 32.161479 27.607224 1.469101 -58.721637 67.591070 -34.790761 0.959048 -0.915681 -0.208320 0.187770 -0.207040 -0.124180 
0.905320 17.069870 -2.708550 -5.697164 77.380925 -4.543846 -15.727375 12.222934 3.107809 5.630221 -3.093760 -24.930123 -12.149395 9.543976 23.303774 -0.430303 5.563383 2.741583 0.632540 0.466010 0.395970 17.873508 -10.667254 3.022679 -3.887943 8.008616 -24.938886 2.422664 -9.178825 53.243207 -0.888151 -8.496541 1.568149 0.531810 0.566410 0.232330 -4.917827 -0.082245 -7.306385 10.087268 2.289034 7.013953 -2.578169 2.158102 11.417078 0.941710 -1.606356 -6.287667 -2.950622 4.656022 28.340178 -5.930240 5.666960 0.745350 -1.690669 -4.099564 1.235838 -23.486564 -26.014553 5.063954 73.223732 -60.830154 -40.751635 -3.734237 2.305680 -0.098970 0.625700 -0.402610 0.349040 0.085168 6.696904 1.249865 30.174339 29.741454 3.314199 -65.370452 61.801207 -36.435325 1.023620 -1.014770 -0.212690 0.204820 -0.209600 -0.123610 
0.840040 17.066170 -2.682860 -4.016620 76.677621 -2.751821 -15.688560 12.141293 3.275258 6.254833 -3.284592 -26.484542 -12.882072 10.480481 25.512518 -0.377482 6.047803 2.549152 0.661950 0.505370 0.412020 17.911050 -10.763573 2.857377 -3.749285 7.409926 -23.663236 1.798445 -8.291540 50.686378 -0.777603 -8.010953 1.718919 0.567800 0.568870 0.231690 -4.823319 -0.012449 -7.286488 9.334690 2.657377 6.956185 -2.249196 2.474737 11.798533 0.794235 -1.629381 -6.296594 -2.913256 4.870997 28.059155 -5.790000 5.650660 0.279290 -1.020314 -4.580926 1.254978 -20.989024 -26.746742 5.139793 76.021964 -56.093559 -39.840596 -3.835919 2.477485 -0.103180 0.631030 -0.402310 0.354690 -0.232497 7.436867 1.210092 27.963895 31.532334 4.595706 -69.563987 56.552594 -37.072047 1.135711 -1.218151 -0.215070 0.220440 -0.216240 -0.125530 
